<svg xmlns="http://www.w3.org/2000/svg" viewBox="0 0 707.025 256.604"><style type="text/css"><![CDATA[
	.st0{fill:#7B399C;}
	.st1{fill-rule:evenodd;clip-rule:evenodd;fill:#7B399C;}
	.st2{stroke:#000000;stroke-width:1.3295;stroke-linejoin:round;}
]]></style><path class="st1" d="M330.386 25.418c-20.927-22.136-69.095-10.585-107.594 25.806-35.327 33.392-50.211 76.077-36.266 99.992l-32.904 48.973 43.509-37.923c23.208 14.814 66.335 2.3 101.431-30.877 38.502-36.389 52.749-83.832 31.824-105.971zm-31.459 43.125c-.29 2.673-.886 5.517-1.782 8.527-.914 3.038-2.122 6.238-3.656 9.607-1.869 4.11-4.024 8.087-6.441 11.91-2.437 3.837-5.143 7.521-8.115 11.025-2.982 3.514-6.221 6.851-9.702 9.986-3.487 3.142-7.212 6.082-11.167 8.816-3.952 2.724-7.858 5.061-11.724 6.99-3.849 1.933-7.65 3.47-11.384 4.6-3.706 1.134-7.349 1.866-10.916 2.206-3.537.34-6.99.284-10.354-.15-2.849-.37-5.397-.98-7.625-1.838-2.211-.847-4.116-1.933-5.712-3.253-1.587-1.309-2.874-2.852-3.851-4.617-.975-1.751-1.643-3.731-2.022-5.931-.37-2.189-.512-4.467-.415-6.823.097-2.347.429-4.781.994-7.285.551-2.495 1.336-5.074 2.345-7.728 1.014-2.634 2.239-5.353 3.692-8.14 1.22-2.358 2.567-4.687 4.032-6.989 1.457-2.295 3.024-4.567 4.717-6.806 1.685-2.239 3.476-4.439 5.392-6.619 1.905-2.175 3.926-4.319 6.054-6.427 2.142-2.114 4.303-4.105 6.475-5.974 2.181-1.865 4.383-3.609 6.594-5.221 2.225-1.621 4.47-3.116 6.728-4.48 2.27-1.368 4.553-2.618 6.862-3.731 2.308-1.117 4.614-2.1 6.895-2.938 2.298-.852 4.581-1.557 6.848-2.119 2.278-.574 4.542-1.003 6.792-1.29 2.264-.287 4.509-.437 6.742-.437 2.707 0 5.19.234 7.46.696 2.283.468 4.338 1.164 6.173 2.102 1.833.944 3.442 2.12 4.812 3.545 1.378 1.426 2.512 3.102 3.395 5.021.905 1.93 1.512 4.041 1.824 6.33.313 2.303.324 4.781.04 7.435z"/><path class="st2" d="M64.432 156.354v-7.831l-1 .836c-5.547 4.667-11.927 6.995-19.137 6.995-8.432 0-15.561-2.907-21.387-8.732-5.826-5.826-8.736-12.955-8.736-21.387s2.91-15.556 8.736-21.381 12.955-8.738 21.387-8.738c8.209 0 14.586 2.261 19.137 6.772l1 .991v-7.764h9.98v60.239h-9.98zm-20.139-9.98c5.547 0 10.29-1.966 14.23-5.909 3.938-3.938 5.909-8.683 5.909-14.23s-1.972-10.287-5.909-14.23c-3.94-3.938-8.683-5.909-14.23-5.909-5.547 0-10.292 1.972-14.23 5.909-3.94 3.943-5.909 8.683-5.909 14.23s1.969 10.292 5.909 14.23c3.937 3.943 8.683 5.909 14.23 5.909zM92.962 156.354v-120.657h9.98v68.343l2.005-1.688c4.896-4.155 10.964-6.238 18.198-6.238 7.681 0 14.609 2.623 20.788 7.858 6.177 5.235 9.268 11.646 9.268 19.22v33.16h-9.98v-30.22l-.498-3.843c-.557-4.673-2.777-8.538-6.659-11.601-3.885-3.063-8.212-4.595-12.982-4.595-4.884 0-9.156 1.504-12.818 4.511-3.662 3.007-5.99 6.9-6.987 11.685l-.334 3.843v30.22h-9.981zM361.221 156.354v-7.998l-1.996 1.705c-4.882 4.199-10.928 6.293-18.135 6.293-7.878 0-14.701-2.528-20.468-7.591-5.767-5.063-8.928-11.54-9.482-19.438l-.178-2.173v-31.037h9.98v30.086l.178 3.865c1.002 4.823 3.342 8.744 7.018 11.769 3.676 3.029 7.964 4.539 12.866 4.539 4.678 0 8.995-1.554 12.949-4.673 3.954-3.119 6.21-6.956 6.767-11.523l.501-3.837v-30.226h9.98v60.239h-9.98zM389.598 156.354v-120.657h9.98v68.343l2.005-1.688c4.896-4.155 10.961-6.238 18.195-6.238 7.679 0 14.607 2.623 20.79 7.858 6.177 5.235 9.268 11.646 9.268 19.22v33.16h-9.98v-30.22l-.501-3.843c-.558-4.673-2.774-8.538-6.656-11.601-3.887-3.063-8.215-4.595-12.981-4.595-4.884 0-9.156 1.504-12.82 4.511-3.659 3.007-5.987 6.9-6.984 11.685l-.334 3.843v30.22h-9.982zM487.288 214.602v-118.34h9.802v7.697l.98-.819c5.447-4.584 11.716-6.878 18.8-6.878 8.282 0 15.282 2.863 21.005 8.583 5.72 5.72 8.583 12.721 8.583 21.002 0 8.282-2.863 15.285-8.583 21.005-5.723 5.721-12.723 8.58-21.005 8.58-8.064 0-14.333-2.233-18.8-6.7l-.98-.979v66.85h-9.802zm29.585-68.972c5.449 0 10.108-1.933 13.979-5.804 3.868-3.868 5.803-8.527 5.803-13.979 0-5.45-1.935-10.108-5.803-13.979-3.871-3.868-8.53-5.803-13.979-5.803-5.453 0-10.111 1.936-13.979 5.803-3.871 3.871-5.804 8.53-5.804 13.979 0 5.452 1.933 10.111 5.804 13.979 3.868 3.872 8.526 5.804 13.979 5.804zM612.476 155.432v-7.845l-1.96 1.668c-4.796 4.119-10.732 6.177-17.817 6.177-7.735 0-14.436-2.483-20.1-7.457-5.665-4.971-8.772-11.337-9.312-19.096l-.179-2.13v-30.487h9.803v29.593l.178 3.791c.98 4.726 3.281 8.571 6.89 11.537 3.609 2.966 7.825 4.447 12.638 4.447 4.595 0 8.833-1.529 12.721-4.593 3.882-3.06 6.099-6.833 6.645-11.316l.495-3.773v-29.686h9.803v59.17h-9.805zM665.89 155.432c-8.282 0-15.28-2.868-21-8.604s-8.576-12.757-8.576-21.061c0-8.196 2.856-15.163 8.576-20.899 5.72-5.737 12.718-8.605 21-8.605 5.336 0 10.457 1.403 15.358 4.21 4.9 2.807 8.443 6.575 10.623 11.306l.98 2.147h-11.439l-1.635-2.008c-3.812-3.901-8.44-5.854-13.888-5.854-5.449 0-10.108 1.916-13.974 5.748-3.868 3.832-5.801 8.482-5.801 13.955s1.933 10.15 5.801 14.035c3.865 3.888 8.524 5.829 13.974 5.829 5.447 0 10.075-1.908 13.888-5.723l1.635-1.961h11.439l-.98 1.961c-5.121 10.35-13.781 15.524-25.981 15.524z"/><path class="st0" d="M51.559 221.336v-33.15h2.762v2.164l.274-.231c1.524-1.289 3.278-1.933 5.259-1.933 2.317 0 4.277.803 5.879 2.403 1.6 1.604 2.4 3.564 2.4 5.885 0 2.319-.801 4.28-2.4 5.884-1.602 1.602-3.562 2.403-5.879 2.403-2.255 0-4.008-.627-5.259-1.877l-.274-.272v18.725h-2.762zm8.287-19.337c1.522 0 2.824-.54 3.904-1.62 1.081-1.081 1.621-2.382 1.621-3.904 0-1.523-.54-2.824-1.621-3.904-1.081-1.081-2.382-1.621-3.904-1.621s-2.824.54-3.904 1.621c-1.08 1.08-1.621 2.381-1.621 3.904 0 1.522.541 2.823 1.621 3.904 1.08 1.079 2.382 1.62 3.904 1.62zM85.592 204.761v-2.149l-.274.228c-1.525 1.281-3.278 1.922-5.26 1.922-2.317 0-4.276-.802-5.876-2.403-1.601-1.604-2.402-3.564-2.402-5.884 0-2.32.801-4.28 2.402-5.885 1.6-1.601 3.559-2.403 5.876-2.403 2.255 0 4.01.63 5.26 1.886l.274.278v-2.164h2.762v16.575h-2.762zm-5.525-2.762c1.521 0 2.822-.54 3.903-1.62 1.08-1.081 1.622-2.382 1.622-3.904 0-1.523-.542-2.824-1.622-3.904-1.081-1.081-2.381-1.621-3.903-1.621-1.522 0-2.824.54-3.904 1.621-1.081 1.08-1.621 2.381-1.621 3.904 0 1.522.54 2.823 1.621 3.904 1.081 1.079 2.382 1.62 3.904 1.62zM93.423 204.761v-16.575h2.718v2.164l.547-.462c1.339-1.134 3.013-1.702 5.022-1.702v2.763c-1.351 0-2.533.412-3.543 1.233-1.014.824-1.658 1.892-1.934 3.2l-.092 1.005v8.374h-2.718zM107.25 182.439c-1.071 0-1.605-.521-1.605-1.56 0-1.069.535-1.604 1.605-1.604 1.039 0 1.558.535 1.558 1.604.001 1.039-.519 1.56-1.558 1.56zm-1.382 22.322v-16.664h2.763v16.664h-2.763zM120.65 204.761c-1.679 0-3.328-.32-4.945-.961-2.044-.852-3.144-1.982-3.296-3.386l-.046-.457h2.718c0 .724.791 1.286 2.374 1.677 1.126.272 2.191.409 3.195.409 1.005 0 2.069-.137 3.197-.409 1.551-.365 2.328-.928 2.328-1.686 0-.668-.61-1.2-1.829-1.595-.825-.273-1.693-.424-2.607-.454h-1.097l-1.693-.134c-1.555-.092-2.973-.521-4.254-1.284-1.555-.916-2.332-2.077-2.332-3.483 0-1.588 1.037-2.841 3.113-3.757 1.618-.704 3.342-1.056 5.174-1.056 1.679 0 3.328.32 4.946.964 2.044.854 3.143 1.988 3.296 3.395l.046.457h-2.749c0-.758-.777-1.32-2.333-1.688-1.131-.273-2.2-.409-3.207-.409-1.038 0-2.107.139-3.206.417-1.588.404-2.382.978-2.382 1.722 0 .682.611 1.225 1.833 1.626.824.281 1.71.435 2.657.465l1.099.048h1.648c1.557.092 2.976.521 4.259 1.283 1.587.916 2.381 2.077 2.381 3.483 0 1.591-1.039 2.844-3.113 3.757-1.618.706-3.344 1.056-5.175 1.056zM64.739 242.43v-2.197l-.549.465c-1.342 1.153-3.005 1.732-4.986 1.732-2.166 0-4.041-.696-5.627-2.088-1.584-1.393-2.453-3.178-2.606-5.353l-.044-.596v-8.538h2.718v8.293l.089 1.058c.275 1.317.916 2.39 1.926 3.22 1.009.827 2.186 1.241 3.531 1.241 1.284 0 2.469-.429 3.555-1.286 1.083-.854 1.703-1.91 1.856-3.166l.138-1.056v-8.304h2.762v16.574h-2.763zM72.522 242.43v-33.104h2.763v33.104h-2.763zM82.351 242.43v-16.441h-3.431v-2.718h3.431v-5.658h2.763v5.658h3.52v2.718h-3.52v16.441h-2.763zM93.577 220.108c-1.07 0-1.605-.521-1.605-1.56 0-1.069.535-1.604 1.605-1.604 1.039 0 1.558.534 1.558 1.604 0 1.039-.519 1.56-1.558 1.56zm-1.382 22.322v-16.664h2.762v16.664h-2.762zM99.149 242.43v-16.574h2.763v2.205l.504-.468c1.249-1.158 2.927-1.737 5.029-1.737 2.775 0 4.956 1.097 6.542 3.297l.365.513.32-.513c1.373-2.2 3.567-3.297 6.586-3.297 2.167 0 4.041.701 5.626 2.11s2.455 3.183 2.606 5.324l.046.69v8.449h-2.718v-8.281l-.092-1.108c-.276-1.29-.925-2.351-1.948-3.181s-2.193-1.242-3.507-1.242c-1.284 0-2.469.421-3.553 1.262s-1.704 1.889-1.856 3.145l-.138 1.1v8.307h-2.763v-8.307l-.136-1.1c-.153-1.256-.769-2.304-1.849-3.145s-2.261-1.262-3.54-1.262c-1.309 0-2.473.412-3.494 1.236-1.021.827-1.667 1.883-1.939 3.17l-.092 1.1v8.307h-2.762zM147.139 242.43v-2.152l-.274.231c-1.524 1.28-3.279 1.921-5.259 1.921-2.318 0-4.277-.802-5.879-2.406-1.601-1.601-2.4-3.564-2.4-5.881 0-2.322.799-4.283 2.4-5.885 1.602-1.604 3.561-2.402 5.879-2.402 2.255 0 4.008.626 5.259 1.885l.274.275v-2.16h2.762v16.574h-2.762zm-5.525-2.763c1.521 0 2.824-.54 3.904-1.62 1.081-1.081 1.621-2.384 1.621-3.904 0-1.523-.541-2.824-1.621-3.904s-2.382-1.621-3.904-1.621c-1.522 0-2.824.541-3.904 1.621s-1.621 2.381-1.621 3.904c0 1.521.54 2.823 1.621 3.904 1.081 1.08 2.382 1.62 3.904 1.62zM156.927 242.43v-16.441h-3.429v-2.718h3.429v-5.658h2.763v5.658h3.52v2.718h-3.52v16.441h-2.763zM171.987 242.43c-2.013 0-3.782-.612-5.308-1.832-1.523-1.22-2.454-2.824-2.791-4.807l-.044-.275-.092-.504c-.031-.185-.047-.474-.047-.869 0-.368.017-.641.047-.824l.136-.824c.337-1.985 1.267-3.587 2.791-4.81 1.526-1.22 3.297-1.829 5.308-1.829 1.983 0 3.782.632 5.399 1.898 1.618 1.271 2.531 2.866 2.746 4.79l.136 1.192v.412c.031.275.017.564-.044.868l-.044.507h-13.545l.273.774c.794 2.244 2.487 3.369 5.08 3.369 1.526 0 2.837-.546 3.935-1.634l.412-.499h3.25l-.32.549c-1.681 2.897-4.106 4.348-7.278 4.348zm5.355-9.668l-.184-.641c-.944-2.337-2.671-3.504-5.171-3.504-2.593 0-4.286 1.123-5.08 3.37l-.273.774h10.708z"/></svg>