<svg xmlns="http://www.w3.org/2000/svg" viewBox="0 0 707.025 256.604"><style type="text/css"><![CDATA[
	.st0{fill:#7B399C;}
	.st1{fill-rule:evenodd;clip-rule:evenodd;fill:#7B399C;}
	.st2{stroke:#000000;stroke-width:1.3295;stroke-linejoin:round;}
]]></style><path class="st1" d="M330.386 25.418c-20.927-22.136-69.095-10.585-107.594 25.806-35.327 33.392-50.211 76.077-36.266 99.992l-32.904 48.973 43.509-37.923c23.208 14.814 66.335 2.3 101.431-30.877 38.502-36.389 52.749-83.832 31.824-105.971zm-31.459 43.125c-.29 2.673-.886 5.517-1.782 8.527-.914 3.038-2.122 6.238-3.656 9.607-1.869 4.11-4.024 8.087-6.441 11.91-2.437 3.837-5.143 7.521-8.115 11.025-2.982 3.514-6.221 6.851-9.702 9.986-3.487 3.142-7.212 6.082-11.167 8.816-3.952 2.724-7.858 5.061-11.724 6.99-3.849 1.933-7.65 3.47-11.384 4.6-3.706 1.134-7.349 1.866-10.916 2.206-3.537.34-6.99.284-10.354-.15-2.849-.37-5.397-.98-7.625-1.838-2.211-.847-4.116-1.933-5.712-3.253-1.587-1.309-2.874-2.852-3.851-4.617-.975-1.751-1.643-3.731-2.022-5.931-.37-2.189-.512-4.467-.415-6.823.097-2.347.429-4.781.994-7.285.551-2.495 1.336-5.074 2.345-7.728 1.014-2.634 2.239-5.353 3.692-8.14 1.22-2.358 2.567-4.687 4.032-6.989 1.457-2.295 3.024-4.567 4.717-6.806 1.685-2.239 3.476-4.439 5.392-6.619 1.905-2.175 3.926-4.319 6.054-6.427 2.142-2.114 4.303-4.105 6.475-5.974 2.181-1.865 4.383-3.609 6.594-5.221 2.225-1.621 4.47-3.116 6.728-4.48 2.27-1.368 4.553-2.618 6.862-3.731 2.308-1.117 4.614-2.1 6.895-2.938 2.298-.852 4.581-1.557 6.848-2.119 2.278-.574 4.542-1.003 6.792-1.29 2.264-.287 4.509-.437 6.742-.437 2.707 0 5.19.234 7.46.696 2.283.468 4.338 1.164 6.173 2.102 1.833.944 3.442 2.12 4.812 3.545 1.378 1.426 2.512 3.102 3.395 5.021.905 1.93 1.512 4.041 1.824 6.33.313 2.303.324 4.781.04 7.435z"/><path class="st2" d="M64.432 156.354v-7.831l-1 .836c-5.547 4.667-11.927 6.995-19.137 6.995-8.432 0-15.561-2.907-21.387-8.732-5.826-5.826-8.736-12.955-8.736-21.387s2.91-15.556 8.736-21.381 12.955-8.738 21.387-8.738c8.209 0 14.586 2.261 19.137 6.772l1 .991v-7.764h9.98v60.239h-9.98zm-20.139-9.98c5.547 0 10.29-1.966 14.23-5.909 3.938-3.938 5.909-8.683 5.909-14.23s-1.972-10.287-5.909-14.23c-3.94-3.938-8.683-5.909-14.23-5.909-5.547 0-10.292 1.972-14.23 5.909-3.94 3.943-5.909 8.683-5.909 14.23s1.969 10.292 5.909 14.23c3.937 3.943 8.683 5.909 14.23 5.909zM92.962 156.354v-120.657h9.98v68.343l2.005-1.688c4.896-4.155 10.964-6.238 18.198-6.238 7.681 0 14.609 2.623 20.788 7.858 6.177 5.235 9.268 11.646 9.268 19.22v33.16h-9.98v-30.22l-.498-3.843c-.557-4.673-2.777-8.538-6.659-11.601-3.885-3.063-8.212-4.595-12.982-4.595-4.884 0-9.156 1.504-12.818 4.511-3.662 3.007-5.99 6.9-6.987 11.685l-.334 3.843v30.22h-9.981zM361.221 156.354v-7.998l-1.996 1.705c-4.882 4.199-10.928 6.293-18.135 6.293-7.878 0-14.701-2.528-20.468-7.591-5.767-5.063-8.928-11.54-9.482-19.438l-.178-2.173v-31.037h9.98v30.086l.178 3.865c1.002 4.823 3.342 8.744 7.018 11.769 3.676 3.029 7.964 4.539 12.866 4.539 4.678 0 8.995-1.554 12.949-4.673 3.954-3.119 6.21-6.956 6.767-11.523l.501-3.837v-30.226h9.98v60.239h-9.98zM389.598 156.354v-120.657h9.98v68.343l2.005-1.688c4.896-4.155 10.961-6.238 18.195-6.238 7.679 0 14.607 2.623 20.79 7.858 6.177 5.235 9.268 11.646 9.268 19.22v33.16h-9.98v-30.22l-.501-3.843c-.558-4.673-2.774-8.538-6.656-11.601-3.887-3.063-8.215-4.595-12.981-4.595-4.884 0-9.156 1.504-12.82 4.511-3.659 3.007-5.987 6.9-6.984 11.685l-.334 3.843v30.22h-9.982zM487.288 214.602v-118.34h9.802v7.697l.98-.819c5.447-4.584 11.716-6.878 18.8-6.878 8.282 0 15.282 2.863 21.005 8.583 5.72 5.72 8.583 12.721 8.583 21.002 0 8.282-2.863 15.285-8.583 21.005-5.723 5.721-12.723 8.58-21.005 8.58-8.064 0-14.333-2.233-18.8-6.7l-.98-.979v66.85h-9.802zm29.585-68.972c5.449 0 10.108-1.933 13.979-5.804 3.868-3.868 5.803-8.527 5.803-13.979 0-5.45-1.935-10.108-5.803-13.979-3.871-3.868-8.53-5.803-13.979-5.803-5.453 0-10.111 1.936-13.979 5.803-3.871 3.871-5.804 8.53-5.804 13.979 0 5.452 1.933 10.111 5.804 13.979 3.868 3.872 8.526 5.804 13.979 5.804zM612.476 155.432v-7.845l-1.96 1.668c-4.796 4.119-10.732 6.177-17.817 6.177-7.735 0-14.436-2.483-20.1-7.457-5.665-4.971-8.772-11.337-9.312-19.096l-.179-2.13v-30.487h9.803v29.593l.178 3.791c.98 4.726 3.281 8.571 6.89 11.537 3.609 2.966 7.825 4.447 12.638 4.447 4.595 0 8.833-1.529 12.721-4.593 3.882-3.06 6.099-6.833 6.645-11.316l.495-3.773v-29.686h9.803v59.17h-9.805zM665.89 155.432c-8.282 0-15.28-2.868-21-8.604s-8.576-12.757-8.576-21.061c0-8.196 2.856-15.163 8.576-20.899 5.72-5.737 12.718-8.605 21-8.605 5.336 0 10.457 1.403 15.358 4.21 4.9 2.807 8.443 6.575 10.623 11.306l.98 2.147h-11.439l-1.635-2.008c-3.812-3.901-8.44-5.854-13.888-5.854-5.449 0-10.108 1.916-13.974 5.748-3.868 3.832-5.801 8.482-5.801 13.955s1.933 10.15 5.801 14.035c3.865 3.888 8.524 5.829 13.974 5.829 5.447 0 10.075-1.908 13.888-5.723l1.635-1.961h11.439l-.98 1.961c-5.121 10.35-13.781 15.524-25.981 15.524z"/></svg>