<?xml version="1.0" encoding="UTF-8" standalone="no"?>
<svg width="722.55219" height="800.00006" version="1.1" viewBox="0 0 191.17793 211.67002" xml:space="preserve" id="svg256" sodipodi:docname="Logo Paris UC.svg" inkscape:version="1.2 (dc2aeda, 2022-05-15)" xmlns:inkscape="http://www.inkscape.org/namespaces/inkscape" xmlns:sodipodi="http://sodipodi.sourceforge.net/DTD/sodipodi-0.dtd" xmlns="http://www.w3.org/2000/svg" xmlns:svg="http://www.w3.org/2000/svg"><defs id="defs260"/><sodipodi:namedview id="namedview258" pagecolor="#ffffff" bordercolor="#666666" borderopacity="1.0" inkscape:showpageshadow="2" inkscape:pageopacity="0.0" inkscape:pagecheckerboard="0" inkscape:deskcolor="#d1d1d1" showgrid="false" inkscape:zoom="0.295" inkscape:cx="362.71186" inkscape:cy="400" inkscape:window-width="1920" inkscape:window-height="1080" inkscape:window-x="0" inkscape:window-y="0" inkscape:window-maximized="0" inkscape:current-layer="svg256"/><g transform="matrix(1.0244113,0,0,1.0244113,-216.97943,-2.1247315)" stroke-width="0.976149" id="g186"><path d="m 305.12,2.0741 c -12.616,0.080526 -74.199,5.2478 -90.139,29.598 -8.8109,13.459 2.797,53.695 9.7898,75.282 6.0211,18.587 17.572,40.591 34.527,61.947 17.725,22.324 34.469,39.78 45.822,39.799 11.353,-0.0193 28.097,-17.474 45.822,-39.799 16.956,-21.356 28.507,-43.36 34.528,-61.947 6.9927,-21.587 18.6,-61.823 9.7892,-75.282 -15.94,-24.35 -77.523,-29.517 -90.139,-29.598 z" fill="#5e4591" id="path182" style="stroke-width:0.976139"/><path d="m 347.7,13.188 c 18.434,4.2238 36.635,11.945 42.908,21.527 1.2017,1.8357 2.2259,5.9485 2.2637,11.4 0.0378,5.4519 -0.74996,12.137 -2.0469,19.139 -2.5938,14.004 -7.1804,29.3 -10.643,39.988 -5.7752,17.828 -17.03,39.341 -33.594,60.203 -8.7711,11.047 -17.27,20.821 -24.699,27.619 -7.4227,6.7924 -13.934,10.066 -16.771,10.076 -2.8374,-0.0105 -9.3468,-3.2838 -16.77,-10.076 -7.4293,-6.7984 -15.93,-16.572 -24.701,-27.619 -16.564,-20.862 -27.817,-42.375 -33.592,-60.203 -3.4622,-10.688 -8.0506,-25.984 -10.645,-39.988 -1.297,-7.0019 -2.0846,-13.687 -2.0469,-19.139 0.0377,-5.4519 1.062,-9.5647 2.2637,-11.4 6.2727,-9.5822 24.474,-17.304 42.908,-21.527 18.414,-4.2193 36.953,-5.5163 42.582,-5.5163 5.629,0 24.168,1.2969 42.582,5.5163 z" color="#000000" fill="#ffffff" stroke-width="0.976149" id="path184"/></g><g transform="matrix(1.0244113,0,0,1.0244113,-216.97943,-2.1247315)" stroke-width="0.976149" id="g196"><path d="m 306.74,91.765 c -5.529,-3.1826 -9.373,-1.1974 -10.55,0.04636 -2.5007,2.6434 -2.0496,8.6538 1.9784,13.581 1.959,2.3963 9.6424,9.5859 11.122,9.5163 0.96848,-0.0455 1.9518,-0.71933 1.5412,-2.5707 -0.22273,-1.0043 -0.11491,-1.3422 0.22423,-1.3454 1.0396,-0.01 2.5508,0.10578 2.5508,0.10578 -0.10403,-1.7436 0.24699,-2.0406 0.52918,-1.9727 0.94323,0.22699 0.95781,1.9559 1.646,1.9554 l 1.5245,-0.001 c 1.7857,-1.262 1.9481,0.28623 2.7138,0.0638 0.59042,-0.17154 1.1125,-0.39648 1.4624,-0.76782 1.3323,-1.414 0.79501,-6.781 0.57488,-10.121 -0.19782,-3.0014 -0.66729,-6.0379 -2.0884,-8.8822 -1.6809,-3.3643 -6.6863,-6.8305 -9.3552,-6.4825 -1.6631,0.21688 -4.0953,1.8338 -3.8742,6.8749 z" fill="#5e4591" id="path188" style="stroke-width:0.976139"/><path d="m 314.9,112.49 c 1.3201,-0.32434 3.4692,0.24938 3.6071,1.9026 0.2565,3.0759 -1.4717,4.0239 -3.2107,4.1224 -2.1579,0.12222 -3.144,-1.4852 -3.2107,-2.9332 -0.0641,-1.3921 1.9965,-2.8908 2.8143,-3.0918 z" fill="#5e4591" id="path190" style="stroke-width:0.976139"/><path d="m 306.49,121.93 c 1.7945,-2.0835 3.1254,-3.8551 5.2719,-1.7837 1.21,-0.21155 2.2115,-0.13122 2.8936,0.39638 l -0.0396,1.2288 2.299,0.31711 c 1.248,0.21183 1.7065,-1.2062 2.1008,-2.3783 0.71366,-2.1212 1.4215,-3.3278 2.3386,-3.6864 1.5088,-0.58979 4.2563,0.38498 6.2611,1.707 4.1186,2.7158 7.6211,7.771 8.4962,10.131 3.1749,8.5637 -0.3629,14.532 -4.0947,14.283 -0.0639,-1.6395 -0.28595,-3.2001 -0.99096,-4.5187 -0.34516,-0.64556 -0.88167,-0.62205 -0.67385,0.0396 2.4693,7.8618 -0.16128,15.477 -5.2719,15.895 -2.6136,4.6589 -6.7774,7.1957 -11.257,5.5097 -2.7042,-1.0177 -6.3996,-3.3459 -6.5006,-8.0465 -0.0257,-1.1958 -0.20564,-1.7236 -1.3477,-1.427 -4.2808,1.1119 -6.3825,-2.5616 -6.3025,-8.5618 0.0855,-6.4116 2.811,-14.004 6.8177,-19.106 z" fill="#5e4591" id="path192" style="stroke-width:0.976139"/><path d="m 282.76,128.2 c -0.77069,-7.1514 6.0717,-11.364 10.851,-10.91 2.4365,0.23141 5.5765,1.5249 7.0341,2.8899 2.2446,2.102 3.0891,1.6279 4.2881,0.81492 0.89358,-0.60593 1.3361,-1.9029 0.84672,-4.5373 -0.91277,-4.9135 -6.2636,-5.7826 -10.187,-5.8268 -6.9297,-0.078 -11.894,4.3696 -14.983,11.099 -0.35403,0.77558 -0.83172,1.1883 -1.1891,0.0396 -2.4189,-7.7734 -7.2396,-10.458 -9.315,-9.2753 -2.2417,1.2777 -2.4623,9.8177 -0.28108,13.649 1.7304,3.0396 4.3673,5.5258 7.7727,3.9898 1.0688,-0.48209 1.4385,-1.482 1.7441,-0.0396 1.5783,7.4489 2.3913,10.714 5.589,14.428 l 8.2051,8.4826 c 3.8934,4.2088 5.0492,8.9192 4.9944,12.209 -0.0421,2.5301 -0.40988,4.8692 -1.4666,6.6988 -1.2581,2.1784 -0.96258,3.6832 -0.45462,4.1001 0.86246,0.70784 2.5033,0.58655 3.4275,-0.49299 1.1944,-1.3952 2.373,-1.9578 3.6584,-1.7612 2.4706,0.37788 3.2717,0.67396 3.4646,-2.4327 0.19224,-3.0965 -0.95581,-6.6866 -1.6529,-9.7588 -0.47773,-2.1055 -4.6621,-6.3083 -7.7294,-9.2357 l -6.3421,-5.7872 c -3.3286,-3.7287 -7.054,-9.2298 -7.4123,-13.081 3.2441,0.8132 11.897,1.7821 12.05,-5.2719 v -3.0521 c 0.0788,-3.434 -1.9348,-2.5303 -3.0918,-2.1801 l -5.6286,1.6648 c -1.3115,0.39632 -2.2846,1.8806 -3.0422,3.181 -0.49423,0.84826 -1.0883,1.2356 -1.1495,0.39638 z" fill="#3e9f3e" id="path194" style="stroke-width:0.976139"/></g><g transform="matrix(1.0244113,0,0,1.0244113,-13.688197,-2.1247315)" stroke-width="0.976149" id="g204"><path d="m 86.729,72.413 c 0.27024,4.3653 -1.446,9.2222 -5.0459,11.474 -3.3904,2.1206 -6.1113,2.8408 -10.498,2.8172 h -6.5336 v 14.41 c -0.07128,4.6073 2.1612,3.4967 6.8584,3.6108 v 2.87 h -21.206 v -2.8701 c 4.5437,0.12867 5.9687,0.28899 5.9867,-3.3131 v -33.628 c 0.0614,-3.3552 0.0073,-4.8068 -5.9867,-4.1331 v -2.976 h 23.702 c 3.0676,0 5.9568,0.91387 8.4164,2.8537 2.6422,2.8221 4.1244,5.9508 4.3061,8.8846 z m -8.7301,1.4621 c 0,-3.527 -0.59905,-6.1315 -1.7633,-7.8366 -1.1688,-1.7118 -3.2957,-2.3193 -6.9411,-2.5791 -3.3057,-0.23565 -4.6255,0.66515 -4.6428,1.8118 v 18.483 h 5.1562 c 2.4055,0 4.4329,-0.85803 5.9701,-2.5113 1.5554,-1.6753 2.2209,-3.9071 2.2209,-7.368 z" style="white-space:pre;stroke-width:0.976149" id="path198"/><path d="m 88.163,44.193 v 2.9368 c 5.9177,-0.3797 5.7151,0.87166 5.7682,4.1068 v 24.006 c 0,5.4008 0.7493,9.611 3.6774,12.631 0.2516,0.25951 0.51295,0.50746 0.7824,0.74467 2.7804,-0.24801 5.5609,0.18871 8.3412,1.5488 0.0184,-1.5212 0.25328,-2.7357 0.5855,-3.8122 -1.0226,-0.49564 -1.9068,-1.1755 -2.5911,-2.0583 -1.6404,-2.1162 -2.3818,-5.0641 -2.3818,-9.7153 v -23.675 c 0.0585,-4.929 1.5194,-3.5152 5.9269,-3.7761 v -2.9368 z m 27.808,5.17e-4 v 3.0019 c 2.6907,-0.44659 5.051,1.2767 5.6618,4.669 0.3175,1.3887 0.3173,3.4939 0.3173,6.3155 v 15.905 c 0,4.541 -0.72504,7.8941 -2.6583,10.079 -0.38474,0.43475 -0.76148,0.8169 -1.1384,1.1529 1.003,0.82725 1.9332,1.7429 2.5947,2.9849 0.11085,-0.11606 0.22104,-0.23356 0.32918,-0.35502 2.787,-3.1302 4.1807,-6.352 4.1807,-12.638 v -17.459 c 0,-2.8657 0.1323,-5.0149 0.39688,-6.4478 0.81062,-2.9192 2.3013,-4.606 5.5295,-4.206 v -3.0025 z" style="white-space:pre;stroke-width:0.976149" id="path200"/><path d="m 151.83,112.7 c -9.2531,0.0544 -15.256,-6.5556 -17.803,-14.447 -1.0054,-3.115 -1.4814,-6.5443 -1.4814,-10.271 0,-3.7044 0.50565,-7.1781 1.6403,-10.271 2.9165,-7.9503 8.9159,-14.137 18.214,-14.127 3.6378,0.0038 7.5267,2.4489 9.9692,4.6381 l 1.8362,-4.5872 h 2.076 l 0.66994,18.792 h -2.5646 c -0.66051,-7.2089 -4.8652,-16.551 -11.926,-16.012 -9.2874,0.70838 -10.216,14.007 -10.205,20.582 0.0141,8.5295 1.058,22.7 11.082,22.285 8.1447,-0.33701 10.978,-7.653 12.026,-13.859 h 2.4727 c -1.1458,8.7911 -5.8057,17.219 -16.006,17.279 z" style="white-space:pre;stroke-width:0.976149" id="path202"/></g><g transform="matrix(1.0244113,0,0,1.0244113,-13.688197,-2.1247315)" fill="#5e4591" id="g244" style="stroke-width:0.999989"><path d="m 21.543,42.302 2.1082,-1.7524 q 0.67932,-0.56465 1.3229,-0.88634 0.64362,-0.32168 1.2456,-0.3599 0.59324,-0.04873 1.1419,0.20625 0.53988,0.24447 1.0117,0.81212 0.43688,0.5256 0.56683,1.1108 0.12121,0.57469 -0.02641,1.1595 -0.14762,0.58485 -0.55235,1.1701 -0.40176,0.56501 -1.0225,1.081 l -0.57391,0.47703 2.6562,3.1957 -1.6046,1.3337 z m 2.7754,0.07487 1.2844,1.5453 0.74959,-0.62306 q 1.0893,-0.90539 0.4514,-1.6728 -0.64659,-0.77789 -1.8061,0.18591 z" style="white-space:pre;stroke-width:0.999989" id="path206"/><path d="m 32.483,34.064 1.797,-1.0901 8.6974,6.2032 -1.8491,1.1217 -1.7655,-1.2952 -3.8804,2.354 0.33309,2.1641 -1.8491,1.1217 z m 2.7135,5.3246 2.5652,-1.5562 -3.1608,-2.3033 z" style="white-space:pre;stroke-width:0.999989" id="path208"/><path d="m 43.001,28.275 q 1.5427,-0.76286 2.7391,-0.57676 1.2101,0.17934 1.8523,1.4782 0.85433,1.7277 -0.72672,3.272 l 4.2537,2.7611 -2.0342,1.0059 -4.04,-2.638 -0.17748,0.08776 1.842,3.7249 -1.8704,0.92488 -4.3504,-8.7977 z m 1.0609,3.7604 0.86009,-0.42531 q 1.2833,-0.63459 0.83493,-1.5413 -0.44231,-0.89447 -1.7802,-0.23288 l -0.80548,0.3983 z" style="white-space:pre;stroke-width:0.999989" id="path210"/><path d="m 49.215,25.632 1.947,-0.75011 3.5284,9.1584 -1.947,0.75011 z" style="white-space:pre;stroke-width:0.999989" id="path212"/><path d="m 57.012,30.284 q 0.57212,0.48 1.0976,0.64318 0.5209,0.15028 1.0382,-0.03145 0.50294,-0.17663 0.76176,-0.54279 0.25429,-0.37906 0.12746,-0.74018 Q 59.96907,29.4193 59.86178,29.29762 59.74995,29.16304 59.5708,29.06659 59.38712,28.95725 59.13159,28.87313 58.8859,28.77107 58.5593,28.66846 57.65058,28.37911 56.9218,28.14248 56.20285,27.8879 55.6699,27.61145 55.13698,27.335 54.78102,27.01089 54.4349,26.66884 54.27184,26.20454 54.09972,25.71445 54.1658,25.21315 q 0.08044,-0.50635 0.35972,-0.95214 0.27475,-0.45868 0.72865,-0.82092 0.4539,-0.36224 1.0287,-0.5641 0.97714,-0.34317 1.8164,-0.1598 0.84906,0.16542 1.6934,0.59327 l -1.0421,1.583 q -0.54729,-0.2714 -1.0168,-0.36729 -0.46951,-0.09589 -0.88624,0.05047 -0.38798,0.13626 -0.56886,0.40261 -0.18088,0.26635 -0.08123,0.55009 0.05435,0.15476 0.17602,0.2714 0.13604,0.11159 0.39079,0.23944 0.26459,0.10991 0.66678,0.24392 0.41203,0.11608 1.0229,0.29271 0.66756,0.20019 1.2209,0.39701 0.56323,0.17888 1.0062,0.42897 0.44296,0.25009 0.76034,0.60224 0.31285,0.33925 0.49402,0.85513 0.20382,0.58037 0.14602,1.1512 -0.06233,0.55794 -0.35676,1.0525 -0.29443,0.49457 -0.81565,0.89494 -0.50685,0.39532 -1.211,0.6426 -1.1352,0.39868 -2.112,0.1912 -0.98135,-0.22038 -1.914,-1.0374 z" style="white-space:pre;stroke-width:0.999989" id="path214"/><path d="m 67.017,19.99 2.0407,-0.43502 1.3851,6.4973 q 0.16815,0.78876 0.65582,1.1041 0.48482,0.30196 1.2296,0.1432 0.49155,-0.10479 0.77871,-0.29179 0.2843,-0.20037 0.41175,-0.47912 0.12745,-0.27874 0.11578,-0.62567 4.03e-4,-0.36347 -0.08797,-0.7779 l -1.3309,-6.2433 2.0407,-0.43502 1.3737,6.4438 q 0.16244,0.76203 0.04317,1.4443 -0.10439,0.67914 -0.47209,1.2188 -0.36771,0.53961 -0.98671,0.92314 -0.619,0.38353 -1.468,0.56453 -0.90862,0.1937 -1.648,0.08575 -0.73934,-0.10794 -1.298,-0.46405 -0.54661,-0.37265 -0.90969,-0.9801 -0.36308,-0.60744 -0.53408,-1.4096 z" style="white-space:pre;stroke-width:0.999989" id="path216"/><path d="m 78.902,27.548 -1.3086,-9.7269 1.9773,-0.26601 5.5074,5.7553 -0.85841,-6.3808 2.0679,-0.2782 1.3086,9.7269 -1.9924,0.26804 -5.4905,-5.7438 0.85659,6.3672 z" style="white-space:pre;stroke-width:0.999989" id="path218"/><path d="m 89.345,16.442 2.0809,-0.153 0.71967,9.7881 -2.0809,0.153 z" style="white-space:pre;stroke-width:0.999989" id="path220"/><path d="m 93.453,16.134 2.1452,-0.09848 3.0582,6.8383 2.4797,-7.0925 2.13,-0.09778 -3.4904,9.9851 -1.9931,0.09149 z" style="white-space:pre;stroke-width:0.999989" id="path222"/><path d="m 105.7,25.718 0.52939,-9.8003 5.9615,0.32203 -0.0981,1.8154 -3.878,-0.20949 -0.0966,1.7881 3.878,0.20949 -0.0958,1.7744 -3.878,-0.20949 -0.14009,2.5934 3.878,0.20949 -0.0988,1.829 z" style="white-space:pre;stroke-width:0.999989" id="path224"/><path d="m 117.65,16.651 q 1.7109,0.18597 2.6198,0.986 0.92397,0.80167 0.7674,2.2421 -0.20827,1.9161 -2.3716,2.3684 l 2.1028,4.6148 -2.256,-0.24522 -1.9887,-4.3961 -0.19684,-0.02139 -0.44904,4.1311 -2.0743,-0.22547 1.0606,-9.7571 z m -1.1267,3.7412 0.95389,0.10368 q 1.4232,0.1547 1.5326,-0.8509 0.10784,-0.99202 -1.376,-1.1533 l -0.89332,-0.0971 z" style="white-space:pre;stroke-width:0.999989" id="path226"/><path d="m 124,24.421 q 0.30497,0.68171 0.70632,1.058 0.40293,0.36274 0.94762,0.4253 0.52958,0.06082 0.92235,-0.15549 0.39433,-0.22989 0.438,-0.61013 0.0234,-0.2037 -0.0199,-0.36003 -0.0418,-0.16991 -0.16082,-0.33493 -0.11746,-0.1786 -0.31057,-0.36589 -0.17642,-0.19913 -0.42539,-0.43411 -0.69102,-0.65725 -1.2432,-1.1885 -0.53551,-0.54308 -0.89412,-1.0246 -0.35862,-0.48148 -0.53723,-0.92853 -0.16192,-0.45889 -0.10577,-0.94777 0.0593,-0.51604 0.3377,-0.93812 0.29356,-0.42034 0.73952,-0.69934 0.44752,-0.29258 1.0141,-0.42014 0.56655,-0.12756 1.1718,-0.05805 1.0289,0.11817 1.7037,0.64973 0.6915,0.51971 1.2641,1.2734 l -1.6289,0.96868 q -0.37376,-0.48322 -0.75421,-0.77458 -0.38045,-0.29136 -0.81924,-0.34176 -0.40853,-0.04692 -0.68759,0.11366 -0.27906,0.16058 -0.31337,0.45934 -0.0187,0.16296 0.0397,0.32102 0.0737,0.15981 0.24694,0.3861 0.18999,0.21445 0.49323,0.5107 0.31992,0.28441 0.79226,0.71016 0.51305,0.4717 0.92485,0.89049 0.4285,0.40695 0.71771,0.82542 0.2892,0.41847 0.42085,0.87389 0.13323,0.44184 0.0708,0.98504 -0.0702,0.6111 -0.37156,1.0993 -0.29979,0.47466 -0.78069,0.79092 -0.48091,0.31626 -1.1247,0.44871 -0.62862,0.13419 -1.37,0.04903 -1.1953,-0.13729 -1.9834,-0.75064 -0.78649,-0.62694 -1.2685,-1.7693 z" style="white-space:pre;stroke-width:0.999989" id="path228"/><path d="m 132,18.496 2.0659,0.29291 -1.3778,9.7174 -2.0659,-0.29291 z" style="white-space:pre;stroke-width:0.999989" id="path230"/><path d="m 135.7,18.982 5.9533,1.0569 -0.32017,1.8035 -1.9794,-0.3514 -1.3954,7.86 -2.0544,-0.36471 1.3954,-7.86 -1.9194,-0.34075 z" style="white-space:pre;stroke-width:0.999989" id="path232"/><path d="m 141.66,30.197 1.9174,-9.6254 5.8552,1.1664 -0.35517,1.783 -3.8089,-0.75872 -0.34983,1.7562 3.8089,0.75872 -0.34717,1.7428 -3.8089,-0.75872 -0.50738,2.5471 3.8089,0.75872 -0.35785,1.7964 z" style="white-space:pre;stroke-width:0.999989" id="path234"/><path d="m 154.66,27.978 q 0.34738,-1.1087 1.0654,-1.8722 0.73663,-0.77192 1.6926,-1.1743 0.97054,-0.39782 2.0837,-0.43581 1.1277,-0.03341 2.2468,0.31718 1.279,0.40072 2.3009,1.2652 1.026,0.85147 1.6015,2.0202 l -1.7712,0.76291 q -0.4851,-0.89686 -1.1491,-1.4773 -0.65993,-0.59353 -1.561,-0.87585 -0.7412,-0.23223 -1.4729,-0.1893 -0.71304,0.0344 -1.3275,0.31462 -0.61038,0.26714 -1.085,0.76305 -0.46004,0.50046 -0.67664,1.1918 -0.22478,0.71742 -0.13665,1.404 0.0881,0.68654 0.43697,1.2542 0.34883,0.56768 0.92927,1.0074 0.59498,0.44426 1.3652,0.68559 0.97375,0.30509 1.7922,0.18907 0.83703,-0.12451 1.7867,-0.55752 l 0.95519,1.6888 q -0.66625,0.29262 -1.2666,0.47694 -0.6004,0.18433 -1.2076,0.23759 -0.60723,0.05327 -1.2503,-0.03363 -0.63266,-0.0693 -1.3739,-0.30153 -1.2208,-0.3825 -2.1237,-1.0665 -0.90291,-0.68398 -1.4398,-1.5684 -0.52233,-0.87988 -0.64727,-1.9074 -0.10628,-1.036 0.2329,-2.1187 z" style="white-space:pre;stroke-width:0.999989" id="path236"/><path d="m 170.93,28.347 -3.0563,7.4338 2.8031,1.1525 -0.67571,1.6435 -4.7329,-1.9459 3.732,-9.0773 z" style="white-space:pre;stroke-width:0.999989" id="path238"/><path d="m 176.16,30.589 1.8646,0.93646 -2.9816,5.9366 q -0.36196,0.7207 -0.17854,1.2717 0.18955,0.5388 0.87006,0.88057 0.44913,0.22557 0.79015,0.25918 0.34717,0.0214 0.62092,-0.11646 0.27375,-0.13785 0.48156,-0.41589 0.22751,-0.28344 0.4177,-0.66212 l 2.865,-5.7045 1.8646,0.93646 -2.957,5.8878 q -0.3497,0.69627 -0.86941,1.1542 -0.5061,0.46475 -1.1305,0.65595 -0.62436,0.19121 -1.3472,0.10348 -0.72288,-0.08772 -1.4987,-0.47734 -0.8302,-0.41696 -1.3397,-0.96348 -0.5095,-0.54652 -0.72282,-1.1737 -0.19358,-0.6326 -0.0972,-1.3337 0.0965,-0.70108 0.46455,-1.434 z" style="white-space:pre;stroke-width:0.999989" id="path240"/><path d="m 186.4,36.247 1.7052,1.2801 q 0.6699,0.50289 1.1603,1.042 0.50258,0.54821 0.73616,1.0996 0.24576,0.56052 0.18175,1.1278 -0.0436,0.56548 -0.45395,1.1121 -0.35288,0.47007 -0.85511,0.65709 -0.50223,0.18702 -1.1909,0.16573 0.52115,0.904 0.52944,1.6794 0.0287,0.77359 -0.51295,1.4951 -0.39391,0.52472 -0.9332,0.78648 -0.52711,0.2709 -1.1263,0.28261 -0.59915,0.01171 -1.2582,-0.22663 -0.64684,-0.2292 -1.268,-0.69552 l -2.6065,-1.9567 z m -1.6385,5.6582 -1.5182,2.0224 0.56028,0.4206 q 0.79171,0.59433 1.3496,0.68836 0.57825,0.09225 0.95575,-0.41062 0.39391,-0.52472 0.16879,-1.1381 -0.22511,-0.61339 -1.1021,-1.2717 z m 2.2404,-2.9844 -1.2392,1.6507 0.3654,0.27431 q 0.58464,0.43888 1.0411,0.4397 0.46863,0.0099 0.78048,-0.40546 0.28722,-0.38261 0.16301,-0.80062 -0.12422,-0.418 -0.6845,-0.83861 z" style="white-space:pre;stroke-width:0.999989" id="path242"/></g><g transform="matrix(1.0244113,0,0,1.0244113,-216.97943,-2.1247315)" fill="#5e4591" stroke-width="0.258277" id="g254"><path d="m 295.26,183.32 h -1.5211 l 0.81196,-1.3361 h 2.1173 v 7.3796 h -1.4081 z" style="white-space:pre;stroke-width:0.258277" id="path246"/><path d="m 299.38,184.09 q 0,-0.5139 0.185,-0.93529 0.19528,-0.4214 0.5139,-0.71946 0.32889,-0.29806 0.75029,-0.46251 0.4214,-0.17473 0.89419,-0.17473 0.51389,0 0.94557,0.17473 0.44195,0.17472 0.76057,0.49334 0.31862,0.30834 0.49334,0.74002 0.18501,0.42139 0.18501,0.93529 0,0.47279 -0.18501,0.97641 -0.17472,0.49334 -0.54473,1.1614 l -1.7986,3.2581 -1.1922,-0.59612 1.3875,-2.5181 h -0.0411 q -0.52417,0 -0.95585,-0.16445 -0.43167,-0.16444 -0.74001,-0.47278 -0.30834,-0.30834 -0.48307,-0.74002 -0.17472,-0.43167 -0.17472,-0.95585 z m 1.4184,0.0206 q 0,0.19528 0.0617,0.38028 0.0719,0.17473 0.185,0.31862 0.12333,0.13361 0.28778,0.21584 0.17473,0.0822 0.39057,0.0822 0.43167,0 0.68862,-0.28778 0.26723,-0.29806 0.26723,-0.70918 0,-0.49335 -0.28779,-0.7503 -0.28778,-0.26722 -0.66806,-0.26722 -0.39057,0 -0.65779,0.26722 -0.26723,0.25695 -0.26723,0.7503 z" style="white-space:pre;stroke-width:0.258277" id="path248"/><path d="m 305.19,185.72 q 0,-0.89418 0.14389,-1.6136 0.14389,-0.72974 0.45223,-1.2436 0.31862,-0.5139 0.80168,-0.7914 0.49335,-0.27751 1.1717,-0.27751 1.3259,0 1.9631,0.96613 0.63723,0.96613 0.63723,2.9601 0,1.9117 -0.62696,2.8676 -0.62695,0.94557 -1.9323,0.94557 -0.75029,0 -1.2539,-0.28778 -0.50362,-0.28779 -0.80168,-0.80169 -0.29806,-0.51389 -0.43168,-1.2128 -0.12333,-0.6989 -0.12333,-1.5109 z m 1.4184,0 q 0,2.5181 1.1922,2.5181 1.182,0 1.182,-2.5181 0,-2.5798 -1.1922,-2.5798 -0.67835,0 -0.9353,0.64751 -0.24667,0.64751 -0.24667,1.9323 z" style="white-space:pre;stroke-width:0.258277" id="path250"/><path d="m 312.19,185.06 1.7986,-3.2581 1.1922,0.59612 -1.3875,2.5181 h 0.0411 q 0.52418,0 0.95585,0.16445 0.43168,0.16444 0.74002,0.47278 0.30834,0.30834 0.48306,0.74002 0.17473,0.43167 0.17473,0.95585 0,0.50362 -0.19528,0.9353 -0.18501,0.42139 -0.5139,0.71946 -0.31862,0.29806 -0.74002,0.4625 -0.42139,0.17473 -0.89418,0.17473 -0.5139,0 -0.95585,-0.17473 -0.43168,-0.17472 -0.75029,-0.48306 -0.31862,-0.31862 -0.50363,-0.75029 -0.17472,-0.43168 -0.17472,-0.9353 0,-0.47279 0.17472,-0.96613 0.18501,-0.50362 0.55502,-1.1717 z m 0.6989,2.1686 q 0,0.49335 0.28778,0.76058 0.28779,0.25694 0.66807,0.25694 0.39056,0 0.65779,-0.25694 0.26723,-0.26723 0.26723,-0.76058 0,-0.19528 -0.072,-0.37 -0.0617,-0.18501 -0.185,-0.31862 -0.11306,-0.14389 -0.28778,-0.22612 -0.16445,-0.0822 -0.38029,-0.0822 -0.43167,0 -0.6989,0.29806 -0.25695,0.28779 -0.25695,0.6989 z" style="white-space:pre;stroke-width:0.258277" id="path252"/></g></svg>